<?xml version="1.0" encoding="UTF-8" standalone="no"?>
<!-- Created with Inkscape by Victor Gasia -->

<svg
   xmlns:dc="http://purl.org/dc/elements/1.1/"
   xmlns:cc="http://creativecommons.org/ns#"
   xmlns:rdf="http://www.w3.org/1999/02/22-rdf-syntax-ns#"
   xmlns:svg="http://www.w3.org/2000/svg"
   xmlns="http://www.w3.org/2000/svg"
   version="1.1"
   width="708.66144"
   height="1042.4381"
   id="logo-Gilera">
  <title id = "titre">Logo Gilera</title>
  <desc  id = "description">Extrait par Victor GASIA 2011</desc>
  <defs  id = "defs"></defs>
  <metadata id="metadata">
    <rdf:RDF>
      <cc:Work
         rdf:about="">
        <dc:format>image/svg+xml</dc:format>
        <dc:type
           rdf:resource="http://purl.org/dc/dcmitype/StillImage" />
        <dc:title></dc:title>
      </cc:Work>
    </rdf:RDF>
  </metadata>
  <path
     d="M 708.66145,354.3115 C 708.66145,158.94311 549.71832,-2.3715999e-5 354.33713,-2.3715999e-5 158.94315,-2.3715999e-5 1.8427e-5,158.94311 1.8427e-5,354.3115 1.8427e-5,412.67893 14.521507,470.18914 41.862847,521.21266 14.521507,572.23618 1.8427e-5,629.7464 1.8427e-5,688.12662 c 0,195.3556 158.943131573,354.31148 354.337111573,354.31148 195.38119,0 354.32432,-158.95588 354.32432,-354.31148 0,-58.36743 -14.55987,-115.86485 -41.87562,-166.91396 27.31575,-51.03631 41.87562,-108.55932 41.87562,-166.90116"
     id="path82"
     style="fill:#050301;fill-opacity:1;fill-rule:nonzero;stroke:none" />
  <path
     d="m 356.25627,994.33171 266.31259,-453.97883 -0.30707,-0.56295 -44.69036,-0.0384 -11.70675,0.0384 -0.81883,0.16633 c -0.43501,0.4478 -0.43501,2.78915 -0.40942,4.35005 l 0.0256,1.27942 0.0256,72.35156 0,1.16428 c 0.0384,3.7871 0.064,7.36949 -3.24974,9.91555 -7.3567,5.68066 -16.93961,12.24411 -27.04707,18.46212 -2.71239,1.67605 -4.33726,2.674 -6.12846,1.67605 -1.80399,-1.03633 -1.80399,-2.95547 -1.74002,-7.1392 0.0512,-1.72722 0.0768,-3.87666 0.0384,-6.57625 -0.10236,-4.27328 -0.0384,-154.08131 0,-210.47842 l 0.0128,-22.44114 -0.0128,-2.2262 c -0.0384,-3.53121 -0.10236,-5.64227 1.81678,-6.74257 2.0215,-1.15149 3.91505,0.0384 8.95599,3.17297 l 1.59928,0.97237 c 0.97236,0.62692 18.62845,11.66837 38.36999,28.36488 L 356.58892,48.068022 l -2.26458,-0.06397 -2.34135,0.06397 -220.72663,377.942528 c 22.92732,-19.57522 42.3746,-30.89814 51.42015,-36.16938 l 0.44779,-0.26868 c 0.72928,-0.435 2.95548,-1.81678 5.00256,-0.62692 1.36899,0.78045 2.0215,2.25179 1.98311,4.45241 -0.0512,3.85107 -0.0256,9.33981 0,14.62384 0.0128,5.41197 0.0384,10.50409 0,13.26765 -0.0512,1.65046 -0.0256,2.85312 0,3.82548 0.0128,2.85312 0.0384,4.40123 -2.32855,5.96213 -34.1223,21.73745 -64.61103,51.75279 -88.178064,86.80907 -0.78045,1.18987 -1.803991,3.62078 0.204708,6.97288 3.096216,5.15609 24.014836,35.18422 52.098236,59.21185 l 0,-42.18269 c 0,-1.22825 -0.2175,-1.74002 -0.33265,-1.85517 -0.29427,-0.28147 -1.76561,-0.28147 -2.77635,-0.24309 l -21.4048,0 c -1.804,0 -3.24975,-0.53736 -4.31167,-1.59928 -1.74002,-1.7912 -1.70164,-4.42682 -1.67605,-6.34596 l 0,-0.70368 0.0256,-3.44166 c 0.0128,-5.37359 0.0512,-14.36795 0,-18.32138 -0.0512,-2.20061 0.11515,-4.65711 1.63766,-6.20522 1.53532,-1.49693 3.55681,-1.48413 5.73183,-1.43296 l 1.27943,0.0256 52.6356,0 c 2.2262,0 3.97901,0.62692 5.22006,1.89355 2.21341,2.29018 2.14943,5.91095 2.05987,10.06909 l -0.0512,2.78915 0.0256,20.54758 c 0.0512,33.57215 0.10235,96.04654 0.0256,103.86383 l -0.0256,3.45445 c 0.0256,4.913 0.0256,7.3695 -2.14944,8.61054 -2.05988,1.21546 -4.41402,-0.0128 -8.022,-2.16223 -18.09109,-10.65762 -34.90275,-22.87614 -50.52455,-36.37409 l 222.10841,379.83608 c 0.99795,0.0256 1.95752,0.0896 2.94268,0.0896 l 1.93193,-0.0512"
     id="path84"
     style="fill:#e11d25;fill-opacity:1;fill-rule:nonzero;stroke:none" />
  <path
     d="m 121.37919,600.9721 c 18.39815,17.34902 38.67706,32.72772 60.83672,45.80346 1.36899,0.80604 2.27738,1.25384 2.95548,1.5609 0.0768,-0.97236 0.0768,-2.46929 0.0768,-3.96622 l 0.0128,-3.51842 c 0.0768,-7.77892 0,-70.22771 -0.0256,-103.77427 l -0.0256,-20.56038 c 0,-0.98516 0.0256,-1.94473 0.0384,-2.85312 0.064,-2.87871 0.12795,-5.84698 -0.69089,-6.6914 l -1.82958,-0.48618 -52.64839,0 -1.35619,-0.0128 -2.30297,0.0896 c -0.0768,0.15353 -0.30706,0.75486 -0.26868,2.71238 0.0768,4.0302 0.0512,13.06295 0.0384,18.43654 l -0.0384,3.42886 -0.0128,0.79324 0.34544,2.94269 0.9084,0.16632 20.44523,0 0.90839,0 c 2.20061,-0.0256 4.47799,-0.064 6.15404,1.59928 1.17707,1.18987 1.72723,2.86592 1.72723,5.23286 l 0,52.27736 -3.85108,-3.1346 C 122.21085,566.09498 99.053233,532.8043 95.765107,527.31557 92.272273,521.46859 94.536858,516.92662 95.688337,515.25058 119.61361,479.69532 150.56294,449.1938 185.22259,427.07252 l 0.10236,-0.064 0.0384,-1.81678 c -0.0256,-0.95957 -0.0384,-2.26459 0.0128,-4.00461 0.0512,-2.69959 0.0256,-7.75332 0,-13.11412 -0.0384,-5.15608 -0.064,-10.41453 -0.0128,-14.30398 l -0.29427,0.15353 c -10.33776,6.0261 -34.40377,20.11258 -61.60437,45.44522 l -47.9657,82.15196 -0.294268,0.49898 0.294268,0.42221 45.88023,78.53119"
     id="path86"
     style="fill:#e11d25;fill-opacity:1;fill-rule:nonzero;stroke:none" />
  <path
     d="m 584.94093,439.07349 c -23.34953,-21.6223 -47.36436,-36.62997 -48.49026,-37.33366 l -1.62487,-0.99795 c -1.31781,-0.84442 -2.58444,-1.59928 -3.53122,-2.14943 l 0,1.62487 0.0256,2.29017 -0.0256,22.45393 c -0.0384,56.38432 -0.11514,206.15396 0,210.38886 0.0384,2.78915 0,4.97697 0,6.74258 l -0.0384,1.74002 0.72927,-0.42221 c 9.88997,-6.11566 19.31934,-12.57676 26.56089,-18.15506 1.3434,-1.01075 1.44576,-2.41812 1.40737,-6.11566 l 0,-1.20266 -0.0384,-72.35156 0,-1.24104 c -0.0512,-3.01945 -0.0896,-5.87257 1.76561,-7.71494 1.01075,-1.03634 2.4565,-1.5737 4.18372,-1.5737 l 11.68116,-0.0128 46.14891,0.0128 1.36899,0 0.29427,0.56295 7.72773,-13.1525 0.26868,-0.46059 -0.26868,-0.48619 -48.14481,-82.44623"
     id="path88"
     style="fill:#e11d25;fill-opacity:1;fill-rule:nonzero;stroke:none" />
  <path
     d="m 225.03831,371.81405 c -9.50614,3.87667 -19.3961,8.49539 -28.07061,12.935 -0.92119,0.4606 -1.76561,1.26664 -1.76561,2.30297 l 0,267.55363 c 0,1.03633 0.8956,2.52047 1.84237,3.03224 8.99437,4.75946 18.37256,8.87922 27.81473,12.89662 3.7999,1.61207 3.69754,-0.56295 3.65916,-3.28813 l 0,-5.3608 c 0,-3.5568 0.0384,-285.69589 0,-287.49988 -0.0896,-2.66121 -1.68884,-3.31371 -3.48004,-2.57165"
     id="path90"
     style="fill:#ffffff;fill-opacity:1;fill-rule:nonzero;stroke:none" />
  <path
     d="m 326.03622,694.84361 c 25.30705,2.12384 51.77838,1.48413 76.84235,-2.34135 1.36898,-0.21751 2.17502,-1.68885 2.17502,-3.04504 l 0,-27.31575 c 0,-2.08547 0.40942,-3.50563 -3.16018,-2.94268 -13.57472,2.14944 -23.25997,3.46724 -42.55372,3.65916 -1.52252,0.0384 -2.78915,-1.10031 -2.78915,-2.63562 l 0,-119.9718 c 0,-1.03634 0.62692,-2.0215 1.53531,-2.4565 1.02354,-0.52457 1.93193,-0.29427 2.95548,-0.29427 l 33.62332,0 c 1.07472,0 2.04708,-0.46059 2.58444,-1.44575 0.52457,-0.95957 0.34545,-1.93194 0.34545,-2.87871 l 0,-24.48822 -0.33266,-2.99386 c -0.46059,-0.92119 -1.40736,-1.49693 -2.4437,-1.49693 l -34.21186,0 c -1.08751,0 -2.07267,0.14074 -3.07062,-0.70368 -1.30502,-1.10031 -0.98516,-3.19857 -0.98516,-4.50358 l 0,-117.50251 c 0,-1.5609 1.16428,-1.98311 2.68679,-1.98311 15.26356,0.14073 28.97901,1.38178 42.78402,3.58239 1.76561,0.28147 3.21136,-0.92119 3.21136,-2.674 l 0,-28.00664 c 0,-1.38178 -1.39457,-2.41812 -2.78915,-2.58444 -25.72926,-3.64637 -50.31984,-4.29888 -76.50969,-2.2518 -2.75077,0.20471 -2.73797,1.54811 -2.73797,2.95548 l 0.0384,341.01829 c 0,1.40736 1.35619,3.17297 2.80194,3.30092"
     id="path92"
     style="fill:#ffffff;fill-opacity:1;fill-rule:nonzero;stroke:none" />
  <path
     d="m 238.8817,675.8953 c 4.28608,1.48414 6.46111,2.18782 9.53173,3.24974 8.022,2.78915 31.90889,10.19703 61.11819,13.85619 6.7042,0.87001 5.97492,1.54811 5.97492,-6.0261 l 0,-21.89098 c 0,-5.01535 0.34545,-4.58035 -3.40327,-5.06653 -15.96724,-1.98311 -33.38023,-6.16683 -38.51073,-7.81729 -2.66121,-0.83163 -4.08137,-1.40737 -4.08137,-4.58035 l 0,-283.09866 c 0,-7.90685 0.74207,-7.67655 -6.38434,-5.75741 -8.09877,2.2262 -15.98003,4.87461 -23.96365,7.5614 -3.59519,1.30502 -3.03224,3.32651 -3.05783,8.4954 -0.0512,4.82343 0.0768,291.65801 0.064,293.71789 -0.0256,3.87666 0.15353,6.42272 2.71238,7.3567"
     id="path94"
     style="fill:#ffffff;fill-opacity:1;fill-rule:nonzero;stroke:none" />
  <path
     d="m 475.57557,501.41994 c 0,1.29222 -0.4478,2.77635 -2.17503,2.69959 l -26.26662,0.0768 c -1.52252,0 -2.78915,-1.29222 -2.78915,-2.77635 l 0,-103.31368 c 0,-1.18986 -0.70368,-5.32241 3.63357,-3.99181 8.58495,2.61003 19.37052,6.60184 25.63971,9.42938 1.02354,0.49897 1.95752,2.84032 1.95752,3.94063 l 0,93.93548 z m 35.03069,27.26457 -0.0384,-141.13351 c 0.0896,-4.08137 -2.87871,-4.79785 -7.68935,-7.20317 -4.59314,-2.21341 -25.74206,-12.44882 -52.6356,-20.20214 -10.22262,-2.96827 -21.34083,-5.69345 -33.13714,-7.91965 -4.52917,-0.87001 -4.31167,2.53326 -4.31167,5.66786 l 0.11515,329.3755 c 0,4.64432 2.07267,3.28813 5.20726,2.73797 5.48874,-0.93398 17.59211,-3.73592 25.30706,-5.82139 3.09621,-0.83162 2.57164,-5.25844 2.57164,-7.36949 l 0,-139.3935 7.19038,0 c 1.85517,0 2.35414,1.13869 3.83828,5.71904 3.5696,10.68321 34.5573,117.13148 35.65761,119.62636 1.65046,3.58239 2.39253,2.80194 4.84902,1.72722 5.10491,-2.2134 16.82446,-8.21391 20.13817,-10.09467 2.6868,-1.54811 4.54197,-2.27738 5.28403,-3.24974 1.08752,-1.38178 0.19192,-3.76152 -0.60133,-6.40993 l -29.50357,-99.15554 -2.41811,-8.12435 15.77532,-0.0384 c 4.77226,0 4.40123,-5.89815 4.40123,-8.73848"
     id="path96"
     style="fill:#ffffff;fill-opacity:1;fill-rule:nonzero;stroke:none" />
  <path
     d="m 597.76078,503.97879 c -9.07113,0 -21.37921,-0.0896 -32.89405,0 -1.53531,0 -2.4437,-0.90839 -2.4437,-2.43091 l 0,-36.3613 c 0,-3.16018 1.22824,-3.65915 3.73592,-1.43295 11.51484,10.50409 22.81217,23.33673 32.42066,35.82393 1.36899,1.81679 2.53327,4.40123 -0.81883,4.40123 M 354.33713,999.14236 c -171.51989,0 -311.079708,-139.53424 -311.079708,-311.01574 0,-47.59466 10.491295,-93.29577 31.166824,-135.86228 l 1.765609,-3.5696 2.302967,3.22415 c 27.699578,38.67706 62.615128,70.59875 103.735888,94.85667 1.36898,0.79324 2.25179,1.26663 2.94268,1.5609 0.0896,-0.98516 0.0896,-2.46929 0.0896,-3.95343 l 0.0128,-3.51842 c 0.0768,-7.77891 0,-70.2405 -0.0384,-103.78706 l -0.0256,-20.56038 c 0,-0.98516 0.0256,-1.95752 0.0512,-2.86592 0.0512,-2.85312 0.12794,-5.82139 -0.71648,-6.6786 l -1.82958,-0.48618 -52.6356,0 -1.36899,-0.0128 -2.29017,0.10236 c -0.0896,0.14073 -0.29427,0.74206 -0.25588,2.69958 0.064,4.0302 0.0384,13.05015 0.0256,18.43654 l -0.0256,3.42886 -0.0256,0.79324 0.35824,2.94269 0.90839,0.17911 20.43244,0 0.90839,-0.0128 c 2.18782,-0.0256 4.47799,-0.064 6.15404,1.61208 1.18987,1.17707 1.71443,2.86591 1.71443,5.23285 l 0,52.26457 -3.85107,-3.14739 c -30.53991,-24.91043 -53.723112,-58.20111 -57.011237,-63.70264 -3.48004,-5.84698 -1.215455,-10.37615 -0.06397,-12.05219 23.925267,-35.55526 54.887387,-66.05678 89.547047,-88.17806 l 0.0896,-0.064 0.0384,-1.81678 c -0.0128,-0.95957 -0.0384,-2.26459 0,-3.99181 0.0512,-2.69959 0.0256,-7.76612 0,-13.13971 -0.0128,-5.1305 -0.0512,-10.40174 0,-14.30399 l -0.30706,0.17912 c -15.87768,9.23746 -64.17602,37.38484 -106.563416,96.5839 l -2.302967,3.22415 -1.765609,-3.58239 C 53.748717,447.62006 43.257422,401.91895 43.257422,354.3243 c 0,-171.51989 139.559818,-311.054126 311.079708,-311.054126 171.5071,0 311.05412,139.534236 311.05412,311.054126 0,47.53068 -10.49129,93.23179 -31.16682,135.7983 l -1.76561,3.5824 -2.30297,-3.22416 c -13.02456,-18.19344 -25.88279,-32.01124 -35.59364,-42.01636 -25.8572,-26.54809 -56.81932,-45.9314 -58.11154,-46.71185 l -1.63766,-1.01075 c -1.31781,-0.83163 -2.58445,-1.59928 -3.53122,-2.14943 l 0,1.62487 0.0384,2.29017 -0.0384,22.46673 c -0.0256,56.37152 -0.11515,206.14116 0,210.37606 0.064,2.78915 0,4.97697 0,6.74258 l -0.0256,1.75281 0.72927,-0.4478 c 9.88997,-6.09007 19.31934,-12.57676 26.5481,-18.12947 1.3434,-1.02354 1.45855,-2.41811 1.40737,-6.11565 l 0,-1.21546 -0.0256,-72.35156 0,-1.24104 c -0.064,-3.00665 -0.0896,-5.87257 1.76561,-7.71494 1.01075,-1.04913 2.4437,-1.5737 4.18372,-1.5737 l 11.69396,-0.0128 46.14891,0.0128 1.35619,0 0.67809,1.24105 c 2.07267,3.77431 4.27329,8.07318 5.91095,11.18218 l 0.69089,1.3434 0.0896,-0.15353 1.7912,3.62078 c 20.67553,42.56651 31.16682,88.26762 31.16682,135.83669 0,171.4815 -139.54702,311.01574 -311.05412,311.01574 m 296.13601,-476.77821 -0.6525,-1.1259 0.6525,-1.17707 c 28.23694,-50.30704 43.15505,-107.61255 43.15505,-165.73688 0,-187.09051 -152.22614,-339.303859 -339.29106,-339.303859 -187.11609,0 -339.316647,152.213349 -339.316647,339.303859 0,58.13713 14.905317,115.45543 43.167844,165.73688 l 0.652507,1.17707 -0.652507,1.1259 C 29.9258,572.67119 15.020483,630.00228 15.020483,688.12662 c 0,187.07771 152.200557,339.30388 339.316647,339.30388 187.06492,0 339.29106,-152.22617 339.29106,-339.30388 0,-58.12434 -14.91811,-115.44264 -43.15505,-165.76247"
     id="path98"
     style="fill:#ffffff;fill-opacity:1;fill-rule:nonzero;stroke:none" />
  <path
     d="m 597.76078,501.61185 -9.32702,-0.0128 -23.60541,0.0128 -0.16633,-0.0128 0.16633,0.16632 -0.0256,-0.23029 0,-36.34851 0.10235,-1.1131 -1.42016,0.66531 1.07472,0.78045 c 13.24206,12.06499 24.79528,25.94676 32.15198,35.50408 l 0.87001,1.5609 0.65251,-0.99796 -0.47339,0.0256 m 2.674,-3.48004 c -7.44626,-9.68526 -19.1786,-23.82292 -32.71493,-36.1182 -0.72927,-0.69089 -3.03224,-2.75077 -5.38638,-1.71443 -2.27738,1.02354 -2.27738,3.92783 -2.27738,4.8874 l 0,36.34851 c 0,2.82753 1.9959,4.82343 4.81064,4.82343 l 23.54144,-0.0256 9.35261,0.0256 c 2.57165,0 3.69754,-1.16427 4.18372,-2.13664 0.81884,-1.63766 0.33265,-3.69754 -1.50972,-6.09007"
     id="path100"
     style="fill:#050301;fill-opacity:1;fill-rule:nonzero;stroke:none" />
  <path
     d="m 192.84794,654.60565 c 0,1.88076 1.36899,4.18372 3.04504,5.10491 8.64892,4.58035 17.46417,8.52098 28.04502,13.01176 1.40737,0.60134 3.45445,1.27943 5.16889,0.11515 1.82958,-1.24104 1.80399,-3.49283 1.7656,-5.47594 l 0,-13.66427 c 0.0256,-126.6888 0.0384,-277.99375 0,-279.36274 -0.0768,-2.61003 -1.21545,-3.88945 -2.16223,-4.51637 -1.29222,-0.81883 -2.91709,-0.90839 -4.56755,-0.2175 -9.04554,3.68474 -18.80756,8.20112 -28.26253,13.05014 -1.89355,0.93399 -3.03224,2.59724 -3.03224,4.40123 l 0,267.55363 z m 4.73388,-267.55363 -0.0256,0.17912 0.4478,-0.34544 c 9.3782,-4.81065 19.01228,-9.25026 27.92988,-12.89662 l 0.39662,-0.11515 -0.33265,-0.17912 0.14074,0.78045 c 0.0256,1.48413 0.0256,100.62688 0,279.222 l 0,13.54912 -0.0768,2.09826 0.8956,-0.62692 -1.16428,-0.34544 c -10.4785,-4.478 -19.1786,-8.35466 -27.66119,-12.81986 l -0.55016,-0.97236 0,0.0256 0,-267.55363"
     id="path102"
     style="fill:#050301;fill-opacity:1;fill-rule:nonzero;stroke:none" />
  <path
     d="m 233.73841,374.79512 c -0.0256,2.91709 0.0128,107.15195 0.0384,190.91599 0.0384,54.72106 0.0384,101.97028 0.0384,102.8147 -0.0256,3.5696 -0.064,8.04759 4.26049,9.59569 l 5.74463,1.97032 3.81269,1.29222 c 4.73388,1.62487 29.97696,9.97953 61.60438,13.99692 l 1.65046,0.19192 c 2.58444,0.38383 4.29887,0.60133 5.66785,-0.61413 1.39458,-1.20266 1.38178,-2.90429 1.33061,-6.0133 l 0,-1.97032 0,-23.00408 c 0.0384,-4.17093 -0.34545,-5.69345 -4.77226,-6.23081 l -0.70369,-0.0768 c -16.14636,-2.0215 -33.55935,-6.2564 -38.10131,-7.70215 -2.43091,-0.76765 -2.43091,-0.83163 -2.43091,-2.34135 l 0,-283.09866 0.0128,-2.02149 c 0.0256,-3.39048 0.0384,-5.25844 -1.53531,-6.48669 -1.62487,-1.25384 -3.45445,-0.72927 -6.80655,0.20471 l -1.06192,0.26868 c -7.27994,1.98311 -14.48311,4.40122 -21.48157,6.72978 l -2.58444,0.87001 c -4.77226,1.71443 -4.74667,5.02814 -4.70829,8.90481 l 0.0256,1.80399 m 6.15404,-6.23081 2.61003,-0.87001 c 7.24155,-2.39253 14.08648,-4.69549 21.23848,-6.61463 l 1.04913,-0.30707 c 1.42016,-0.38382 2.82753,-0.78045 3.26253,-0.76765 l -0.98516,-0.75486 c 0.12795,0.39662 0.10236,1.82958 0.064,3.18577 l -0.0128,2.08546 0,283.09866 c 0,5.02815 3.19857,6.0261 5.74463,6.87052 5.36079,1.68884 22.81217,5.87257 38.97132,7.86847 l 0.71648,0.11515 1.26663,0.17912 -0.70368,-0.76766 0.0384,2.07267 0,25.01279 c 0.0128,1.27943 0.0384,2.57165 -0.064,2.92989 l 0.8828,-0.74207 c -0.33265,0.0384 -1.44575,-0.12794 -2.41811,-0.26868 l -1.71443,-0.2303 c -31.17962,-3.90225 -55.9877,-12.14175 -60.64481,-13.75383 l -3.86387,-1.31781 -5.66786,-1.93193 c -0.80604,-0.29427 -1.15148,-1.07472 -1.1131,-5.09212 0,-0.83163 -0.0256,-45.85464 -0.0384,-102.85308 -0.0384,-83.76404 -0.0768,-187.98611 -0.0384,-190.86482 l -0.0128,-1.89355 c -0.0384,-3.85107 0.0128,-3.86386 1.43296,-4.38843"
     id="path104"
     style="fill:#050301;fill-opacity:1;fill-rule:nonzero;stroke:none" />
  <path
     d="m 503.90207,378.22398 c -16.64534,-8.08598 -35.47849,-15.32753 -53.00663,-20.35567 -11.01587,-3.19857 -22.22364,-5.85978 -33.36744,-7.97083 -2.11106,-0.40942 -3.86387,-0.10235 -5.09212,0.94678 -2.02149,1.65046 -2.02149,4.41402 -2.02149,6.66581 l 0,0.38383 0.11515,329.3755 c 0,1.65046 0.17911,3.67196 1.70163,4.88741 1.54811,1.21546 3.3521,0.83163 4.97697,0.47339 l 1.29222,-0.29427 c 5.47595,-0.92119 17.3874,-3.65916 25.53735,-5.87257 4.51637,-1.21545 4.42682,-6.40992 4.33726,-8.89201 l 0,-140.14836 -2.36694,2.36694 7.31832,0 -0.17912,-0.0768 c 0.38382,0.37103 1.13868,2.674 1.62487,4.19651 1.82958,5.45036 10.77277,35.78556 19.43448,65.14839 10.9391,37.06498 15.78812,53.44164 16.29989,54.66989 0.88281,1.88075 1.74002,3.26254 3.23695,3.79989 1.54811,0.58854 2.92989,-0.0384 4.14534,-0.60133 l 0.58854,-0.29426 c 5.15609,-2.20062 16.99078,-8.21392 20.39405,-10.18424 l 2.17503,-1.20266 c 1.71443,-0.93398 2.95547,-1.58649 3.7871,-2.63562 1.72723,-2.2134 0.87001,-5.04094 0.0384,-7.7917 l -0.24309,-0.74207 -29.50357,-99.18113 -2.41811,-8.11156 -2.27738,3.05783 15.78812,-0.0512 c 1.76561,0 3.32651,-0.61412 4.43961,-1.75281 2.35414,-2.37973 2.34135,-6.23081 2.30296,-8.78966 l 0,-0.56295 -0.0384,-141.13351 c 0.10236,-4.97697 -3.37768,-6.64023 -7.11361,-8.39304 l -1.90634,-0.93398 m 4.27328,9.32702 0.0512,141.13351 0,0.60133 c 0.0128,1.5609 0.0512,4.4652 -0.93398,5.42477 l -1.08752,0.34544 -15.77532,0.064 -3.17298,0 0.90839,3.03224 2.39253,8.11156 29.52916,99.15554 0.24309,0.81883 c 0.31986,1.1131 0.92119,2.99386 0.71648,3.50563 l 0.0256,-0.0512 -2.2262,1.36899 -2.35415,1.26663 c -3.28812,1.90634 -15.00767,7.89406 -19.89508,9.96673 l -0.72927,0.30706 -0.97236,0.43501 0.79324,0.2175 c -0.064,-0.0384 -0.31986,-0.28147 -0.84442,-1.45855 -0.62692,-1.62487 -8.4826,-28.27532 -16.08239,-54.05576 -8.67451,-29.40121 -17.64329,-59.80038 -19.49846,-65.3275 -1.48413,-4.58035 -2.41811,-7.35671 -6.05168,-7.35671 l -9.55732,0 0,142.63045 c 0.0256,1.27943 0.0768,3.95343 -0.84442,4.20931 -7.90685,2.12385 -19.8439,4.87462 -25.08955,5.78301 l -1.5609,0.33265 -1.42016,0.24309 0.70368,0.46059 c -0.0256,0 -0.17912,-0.33265 -0.17912,-1.44575 l -0.0896,-329.3755 0,-0.38383 0.28148,-3.04504 -0.0384,0.0512 1.24105,0.0384 c 10.97747,2.07267 22.04451,4.72109 32.91964,7.85568 17.27225,4.98976 35.83673,12.11617 52.25177,20.08699 l 1.97031,0.93398 c 3.94064,1.86797 4.42682,2.32856 4.37564,4.11976"
     id="path106"
     style="fill:#050301;fill-opacity:1;fill-rule:nonzero;stroke:none" />
  <path
     d="m 473.22142,501.41994 -0.10235,0.60133 0.42221,-0.25589 -0.0128,0 -26.39457,0.064 -0.435,-0.40941 0,-103.91501 0.0768,-1.57369 -0.38383,0.29427 0.84443,0.15353 c 8.13715,2.4565 18.82036,6.37154 25.43499,9.33981 l -0.25588,-0.16633 0.80603,1.94473 0,93.92269 z m 4.73388,-93.93548 c 0,-1.5609 -1.12589,-5.01535 -3.27533,-6.06448 -6.85772,-3.07063 -17.78403,-7.08802 -26.02353,-9.55732 -2.0087,-0.63971 -3.72313,-0.4478 -4.95138,0.49898 -1.91914,1.52252 -1.80399,4.11975 -1.74002,5.39918 l 0.0128,0.34544 0,103.31368 c 0,2.82753 2.30297,5.15609 5.15609,5.15609 l 26.26662,-0.0896 c 1.45855,0.0512 2.49488,-0.57575 3.09622,-1.13869 0.94677,-0.9084 1.45854,-2.26459 1.45854,-3.92784 l 0,-93.93548"
     id="path108"
     style="fill:#050301;fill-opacity:1;fill-rule:nonzero;stroke:none" />
  <path
     d="m 370.21481,501.82935 -10.05629,0 -1.1131,-0.14073 -0.14074,-1.93194 0.0384,-0.76765 0,-117.55369 -0.40942,0.49898 0.70368,-0.0512 c 14.54708,0.11515 28.03224,1.25384 42.42578,3.54401 1.53531,0.24309 3.07062,-0.17912 4.19652,-1.13869 1.12589,-0.94678 1.75281,-2.35414 1.75281,-3.87666 l 0,-28.00664 c 0,-2.48209 -2.12384,-4.59314 -4.9002,-4.95138 -25.60132,-3.62078 -50.08954,-4.33726 -76.95749,-2.239 -4.93859,0.34545 -4.93859,3.92784 -4.93859,5.27124 l 0.064,341.05667 c 0,2.46929 2.11106,5.39917 4.93859,5.64227 26.07471,2.20061 52.8531,1.40736 77.40529,-2.34135 2.43091,-0.39663 4.17093,-2.67401 4.17093,-5.38639 l 0,-27.32854 0.0256,-0.53736 c 0,-1.17708 0.0512,-2.77636 -1.24104,-3.92784 -1.3434,-1.13869 -3.19857,-1.02354 -4.64432,-0.80604 -13.65148,2.14943 -23.25997,3.45445 -42.22107,3.62078 l -0.33265,-0.0896 -0.0384,-0.16633 0,-119.9718 0.19191,-0.31986 1.06192,-0.0896 0.84443,0.0512 33.62332,0 c 2.02149,0 3.69754,-0.99796 4.64432,-2.64842 0.74206,-1.42016 0.70368,-2.6612 0.6653,-3.58239 l -0.0256,-0.48618 0,-24.78249 c 0.0256,-1.03633 0.0256,-2.55885 -0.58854,-3.7871 -0.85721,-1.70164 -2.58444,-2.77636 -4.54196,-2.77636 l -24.60337,0 z m 24.60337,4.74668 0.30706,0.17912 0,-0.0128 0.10236,1.5609 0,25.51176 -0.0768,1.13869 -0.48618,0.19191 -33.62332,0 -0.57575,-0.0256 c -0.8828,-0.064 -2.12384,-0.14074 -3.48004,0.57574 -1.67604,0.81883 -2.80194,2.62282 -2.80194,4.55476 l 0,119.9718 c 0,1.3434 0.52457,2.58444 1.47134,3.54401 0.98516,0.94678 2.27738,1.48414 3.69754,1.44575 19.29375,-0.16632 29.08136,-1.48413 42.91196,-3.65916 l 1.18987,-0.0896 -0.78045,-0.80604 0.0128,0.84443 0,27.95546 -0.25588,0.74207 0.0512,-0.0256 c -24.15556,3.68475 -50.55013,4.4652 -76.2538,2.29017 l 0.0512,0.0256 -0.6653,-0.94677 -0.0384,-341.01829 0.0384,-0.81883 -0.28147,0.35824 0.80604,-0.14074 c 26.50971,-2.05988 50.66528,-1.36899 75.97233,2.239 l 0.76766,0.35823 0,-0.11514 0,28.00664 -0.11515,0.28147 -0.37104,0.0512 c -14.62384,-2.31576 -28.3137,-3.48004 -43.14225,-3.59519 -3.72313,0 -5.06653,2.239 -5.06653,4.33726 l 0,117.50251 -0.0128,0.58853 c -0.064,1.49693 -0.14074,4.04299 1.79119,5.70624 1.58649,1.33061 3.19857,1.29223 4.27329,1.29223 l 34.58289,0"
     id="path110"
     style="fill:#050301;fill-opacity:1;fill-rule:nonzero;stroke:none" />
  <path
     d="m 658.99412,57.049595 0,-15.417087 7.06244,0 c 7.91964,0 10.79835,2.878709 10.79835,7.727735 0,4.887408 -3.48004,7.689352 -9.71084,7.689352 l -8.14995,0 z m 27.27737,-7.996414 c 0,-10.95189 -10.32497,-13.408388 -19.85669,-13.408388 l -16.56858,0 0,44.025059 9.1479,0 0,-16.709307 6.09007,0 12.06499,16.709307 11.93705,0 -14.85414,-17.784026 c 6.83214,-1.087512 12.0394,-4.964174 12.0394,-12.832645"
     id="path112"
     style="fill:#050301;fill-opacity:1;fill-rule:nonzero;stroke:none" />
  <path
     d="m 667.22083,91.581311 c -18.7308,0 -33.96876,-15.225173 -33.96876,-33.955974 0,-18.692418 15.23796,-33.955974 33.96876,-33.955974 18.71801,0 33.95598,15.263556 33.95598,33.955974 0,18.730801 -15.23797,33.955974 -33.95598,33.955974 m 0,-72.428323 c -21.23847,0 -38.49793,17.259461 -38.49793,38.472349 0,21.238476 17.25946,38.510731 38.49793,38.510731 21.22569,0 38.49794,-17.272255 38.49794,-38.510731 0,-21.212888 -17.27225,-38.472349 -38.49794,-38.472349"
     id="path114"
     style="fill:#050301;fill-opacity:1;fill-rule:nonzero;stroke:none" />
</svg>
